<svg xmlns="http://www.w3.org/2000/svg" width="1800" height="887" viewBox="0 0 1800 887" role="img" aria-labelledby="title desc">
  <title id="title">TradingView 심볼 찾기에서 삼성전자 검색하기</title><desc id="desc">USDKRW 심볼을 클릭한 뒤 심볼 찾기 창에 삼성전자 또는 005930을 입력하고 KRX 결과를 선택하는 교육용 참고 이미지</desc>
  <rect width="1800" height="887" fill="#f8f9fa"/><rect width="1800" height="36" fill="#f3f4f5"/><circle cx="15" cy="14" r="13" fill="#92ae75"/><text x="10" y="20" font-family="Arial" font-size="18" fill="#fff">K</text><rect x="42" y="1" width="95" height="27" rx="6" fill="#fff"/><text x="53" y="19" font-family="Arial" font-size="13" font-weight="700">USDKRW</text><g font-family="Arial" font-size="14" fill="#111"><text x="231" y="20">날</text><text x="320" y="20">지표</text><text x="439" y="20">알려드</text><text x="524" y="20">리플레이</text><text x="1748" y="20">거래</text></g>
  <rect x="0" y="36" width="43" height="851" fill="#f5f6f7" stroke="#dce0e3"/><rect x="43" y="36" width="1495" height="851" fill="#fff"/><g stroke="#dfe3e6" stroke-width="1" stroke-dasharray="2 3"><path d="M43 126h1495M43 220h1495M43 314h1495M43 408h1495M43 502h1495M43 596h1495M43 690h1495M43 784h1495"/><path d="M175 36v851M350 36v851M525 36v851M700 36v851M875 36v851M1050 36v851M1225 36v851M1400 36v851"/></g><polyline points="45,770 80,720 115,681 150,634 185,606 220,552 255,474 290,425 325,454 360,420 395,440 430,392 465,430 500,580 535,620 570,565 605,510 640,462 675,500 710,630 745,583 780,552 815,470 850,440 885,490 920,570 955,600 990,542 1025,480 1060,434 1095,360 1130,282 1165,205 1200,254 1235,346 1270,436 1305,525 1340,600 1375,680 1410,760" fill="none" stroke="#11a99c" stroke-width="2"/><polyline points="1200,254 1235,346 1270,436 1305,525 1340,600 1375,680 1410,760" fill="none" stroke="#eb4b59" stroke-width="2"/>
  <rect x="1539" y="36" width="261" height="851" fill="#fff" stroke="#dfe3e6"/><text x="1559" y="68" font-family="Arial" font-size="15" font-weight="700">Watchlist⌄</text><g font-family="Arial" font-size="13"><text x="1560" y="126">KOSPI</text><text x="1650" y="126" fill="#e24a58">6,236.22</text><text x="1560" y="158">KOSPI2</text><text x="1650" y="158" fill="#e24a58">965.94</text><text x="1560" y="190">KOSDAQ</text><text x="1650" y="190" fill="#00a99b">864.39</text></g>
  <rect width="1800" height="887" fill="#000" opacity=".16"/><rect x="520" y="111" width="840" height="680" rx="8" fill="#fff" stroke="#d2d5d9"/><g font-family="Arial"><text x="541" y="154" font-size="21" font-weight="700">심볼 찾기</text><path d="m1319 137 16 16m0-16-16 16" stroke="#222" stroke-width="1.5"/><rect x="541" y="180" width="798" height="42" rx="8" fill="#fff" stroke="#d9dce0"/><circle cx="564" cy="199" r="8" fill="none" stroke="#969aa0" stroke-width="2"/><path d="m570 205 6 6" stroke="#969aa0" stroke-width="2"/><rect x="586" y="187" width="75" height="24" fill="#cde3ff"/><text x="590" y="205" font-size="16">삼성전자</text><g font-size="13" font-weight="700"><rect x="541" y="235" width="50" height="29" rx="14" fill="#292c31"/><text x="556" y="254" fill="#fff">전체</text><rect x="597" y="235" width="48" height="29" rx="14" fill="#f0f1f3"/><text x="610" y="254">주식</text><rect x="651" y="235" width="48" height="29" rx="14" fill="#f0f1f3"/><text x="665" y="254">펀드</text><rect x="705" y="235" width="52" height="29" rx="14" fill="#f0f1f3"/><text x="717" y="254">선물</text></g><rect x="541" y="281" width="798" height="48" rx="4" fill="#fff" stroke="#111" stroke-width="2"/><text x="574" y="311" font-size="16" font-weight="700" fill="#1763e8">005930</text><text x="706" y="311" font-size="15" font-weight="700">Samsung Electronics Co., Ltd.</text><text x="1237" y="311" font-size="13">stock  KRX</text><g font-size="15" fill="#1763e8"><text x="574" y="351">005930</text><text x="574" y="392">005930</text><text x="574" y="433">005930</text></g><g font-size="14"><text x="706" y="351">Samsung Electronics Co., Ltd. GDR</text><text x="706" y="392">Samsung Electronics Preferred</text><text x="706" y="433">Samsung Electronics</text></g><g font-size="13" fill="#555"><text x="1237" y="351">stock  LSE</text><text x="1237" y="392">stock  KRX</text><text x="1237" y="433">stock  OTC</text></g></g>
  <path d="M87 29 C72 68 275 78 512 190" fill="none" stroke="#d3008f" stroke-width="13" stroke-linecap="round"/><path d="m500 161 45 33-55 18z" fill="#d3008f"/><circle cx="88" cy="30" r="25" fill="#d3008f"/><text x="81" y="37" font-family="Arial" font-size="20" font-weight="700" fill="#fff">1</text><circle cx="506" cy="190" r="25" fill="#d3008f"/><text x="499" y="197" font-family="Arial" font-size="20" font-weight="700" fill="#fff">2</text><rect x="110" y="80" width="280" height="55" rx="8" fill="#fff4fb" stroke="#d3008f" stroke-width="2"/><text x="127" y="104" font-family="Arial" font-size="14" font-weight="700" fill="#8c0060">① 현재 종목명 클릭</text><text x="127" y="123" font-family="Arial" font-size="14" font-weight="700" fill="#8c0060">② 삼성전자 또는 005930 입력</text>
</svg>
